<svg xmlns="http://www.w3.org/2000/svg" viewBox="0 0 962.6 624.5"><defs><style>.a{opacity:0.25;}.b{fill:#607890;}.c{opacity:0.1;}</style></defs><title>home_background</title><g class="a"><path class="b" d="M695.1,511.7l15.3-61.8-94.1,35.7Zm-76.7-26.2,90.9-34.4c-.3,1.3-14.5,58.9-14.7,59.6Z" transform="translate(-91.6 -13.5)"/><path class="b" d="M594.8,572.3l.2-.2h.4l47.1-182.4-89,2.7-16.1-95.8h-.8l16.2,95.8-95.9,44Zm.3-1.8c-.7-2.8-41.2-176.5-41.4-177.4l87.8-2.7C641.3,391.4,595.8,567.7,595.1,570.5ZM458.2,436.7,553,393.3c.2.8,40.9,175.2,41.4,177.6C592.7,569.2,458.9,437.5,458.2,436.7Z" transform="translate(-91.6 -13.5)"/><path class="b" d="M485.9,549.9,595,572.4v-.7L485.9,549.2,359.6,465.9l17.3,168.8ZM377.5,633.4c-.1-1.3-16.8-164.6-17-166.1l124.6,82.2Z" transform="translate(-91.6 -13.5)"/><path class="b" d="M288.8,488.8l86.9-138.6H506.8v-.7l-198.6-71L196.2,337.2l.4.6,111.8-58.5,196.3,70.1H375.3L288.2,488.4Z" transform="translate(-91.6 -13.5)"/><path class="b" d="M375.1,350.2,359.7,466.5l-29,91.7.7.2,29-91.7,15.5-117.2L196.7,337.2c0-.6-14.4-188.7-14.5-190.7L308.1,279.1l.5-.5L181.3,144.5l14.8,193.4Z" transform="translate(-91.6 -13.5)"/><polygon class="b" points="16 4 16.7 4.3 5 173.1 4.3 172.8 16 4"/><polygon class="b" points="663.3 338.7 663 338 550.3 376.3 550.5 376.9 663.3 338.7"/><path class="b" d="M457.6,437.2l79.5-140L710,451.1v-.3l147.3-38L754.6,351.3l-44.9,98.6L536.9,296,457.5,436,308.8,278.8l43.5-97.9L250.8,103.2l-.4.6,101,77.4L307.9,279ZM710.5,450l44.4-97.7,100.6,60.2Z" transform="translate(-91.6 -13.5)"/><path class="b" d="M486.1,549.6l22.7-62.5,61.7-25.5L457.8,436.3l-21.7-86.7-54.5-45.1-7.3,45.6.7.2,7.1-44.5L435.4,350l21.8,86.9,110.9,24.9-59.9,24.8-22.8,62.8Z" transform="translate(-91.6 -13.5)"/><path class="b" d="M617.2,485.9l.3-.7-47.6-23.6,71.8-70.3L640.2,321h-.7s1.5,69.7,1.5,70l-72.3,70.8Z" transform="translate(-91.6 -13.5)"/><rect class="b" x="214.1" y="377" width="73" height="0.72" transform="translate(-265 523.4) rotate(-77)"/><path class="b" d="M187.5,224.7l34.6,52,85.9,2.6c0,.6,1.2,66.1,1.2,66.1L337.7,410l29.4,3,90.4,24v-.7l-90.3-24-29.1-3c-.1-.3-28.2-63.9-28.2-64.1l-1.3-66.7L222.5,276,188,224.2,96.6,186.5l-.2.7Z" transform="translate(-91.6 -13.5)"/><polygon class="b" points="156.3 202 156.2 201.3 96.1 210.6 96.2 211.3 156.3 202"/><polygon class="b" points="167.4 328.6 215.6 266.3 215.1 265.8 166.8 328.1 167.4 328.6"/><polygon class="b" points="461.4 379.6 461.9 379 415.5 336.1 415 336.6 461.4 379.6"/><path class="b" d="M822,298.1l34.1,114.7.7-.2S839.7,355.3,823,298.8l80.1,85.5.5-.5-81.1-86.5-28.2-95L754.1,352.8Zm-66.6,52.7c.5-2.1,38.3-143.4,38.9-145.8l27.5,92.3Z" transform="translate(-91.6 -13.5)"/><path class="b" d="M755.5,352.4l-38.2-60.6-.6.4,37.3,59L537.1,296.3l-.2.7Z" transform="translate(-91.6 -13.5)"/><path class="b" d="M776.7,270,822,297.8l.4-.6-45.7-28L637.1,321.7l.2.6Z" transform="translate(-91.6 -13.5)"/><path class="b" d="M196.7,337.7l51.4-122.3,103.5-33.9,29.9,123.7h.7L352.1,180.6,247.6,214.8,196.1,337.4Z" transform="translate(-91.6 -13.5)"/><path class="b" d="M505.6,627.2l-47.8-191-97.5,29.9c-.3-.6-22-56.6-22-56.6l-80.2-68.6,30.1,148.2L359.9,467c.2.7,40,101.2,40.1,101.5-11.5,32.7-23.3,65.9-23.3,65.9Zm-127.9,6.4,23-64.8,84.8-18.9c9.2,37,19.1,76.3,19.2,76.6ZM401,568l21.4-60.4s34.2-68.2,35-69.9l27.9,111.5Zm20.7-60.7-21.3,60.2L360.5,466.8l96.3-29.6C456.1,438.7,421.7,507.3,421.7,507.3ZM288.8,488.1c-.2-.7-29.1-143.3-29.5-145.3l78.4,67.1c0,.2,21.6,55.7,21.9,56.5Z" transform="translate(-91.6 -13.5)"/><path class="b" d="M505.4,627l29.2-67.5-25.7-72.8-.7.3,25.7,72.5c-.2.2-29.1,67.2-29.1,67.2Z" transform="translate(-91.6 -13.5)"/><path class="b" d="M460.1,439.9a4.4,4.4,0,1,0-6-1.5A4.4,4.4,0,0,0,460.1,439.9Z" transform="translate(-91.6 -13.5)"/><path class="b" d="M340.3,413.7a4.2,4.2,0,0,0,1.4-5.9,4.4,4.4,0,0,0-6-1.5,4.5,4.5,0,0,0-1.4,6A4.3,4.3,0,0,0,340.3,413.7Z" transform="translate(-91.6 -13.5)"/><path class="b" d="M309.5,283.4A4.3,4.3,0,0,0,305,276a4.3,4.3,0,1,0,4.5,7.4Z" transform="translate(-91.6 -13.5)"/><path class="b" d="M253.1,106.9a4.3,4.3,0,0,0-4.5-7.4,4.3,4.3,0,1,0,4.5,7.4Z" transform="translate(-91.6 -13.5)"/><path class="b" d="M190,227.8a4.4,4.4,0,0,0,1.4-6,4.3,4.3,0,0,0-7.4,4.5A4.4,4.4,0,0,0,190,227.8Z" transform="translate(-91.6 -13.5)"/><path class="b" d="M424,511a4.3,4.3,0,1,0-6-1.4A4.3,4.3,0,0,0,424,511Z" transform="translate(-91.6 -13.5)"/><path class="b" d="M536.9,563.2a4.3,4.3,0,0,0-4.5-7.4,4.3,4.3,0,1,0,4.5,7.4Z" transform="translate(-91.6 -13.5)"/><path class="b" d="M199,341.4a4.3,4.3,0,0,0,1.4-6,4.3,4.3,0,0,0-7.4,4.5A4.4,4.4,0,0,0,199,341.4Z" transform="translate(-91.6 -13.5)"/><path class="b" d="M332.9,561.9a4.3,4.3,0,1,0-4.5-7.4,4.3,4.3,0,0,0,4.5,7.4Z" transform="translate(-91.6 -13.5)"/><path class="b" d="M505.7,631.3a4.4,4.4,0,0,0,1.4-6,4.3,4.3,0,0,0-5.9-1.5,4.4,4.4,0,0,0,4.5,7.5Z" transform="translate(-91.6 -13.5)"/><path class="b" d="M376.5,353.8a4.3,4.3,0,0,0,1.5-5.9,4.3,4.3,0,1,0-7.4,4.5A4.2,4.2,0,0,0,376.5,353.8Z" transform="translate(-91.6 -13.5)"/><path class="b" d="M572.2,465.3a4.4,4.4,0,0,0,1.4-6,4.3,4.3,0,0,0-7.4,4.5A4.4,4.4,0,0,0,572.2,465.3Z" transform="translate(-91.6 -13.5)"/><path class="b" d="M696.8,514.4a4.3,4.3,0,0,0,1.5-5.9,4.3,4.3,0,1,0-7.4,4.5A4.2,4.2,0,0,0,696.8,514.4Z" transform="translate(-91.6 -13.5)"/><path class="b" d="M644.7,393.4a4.3,4.3,0,1,0-6-1.4A4.5,4.5,0,0,0,644.7,393.4Z" transform="translate(-91.6 -13.5)"/><path class="b" d="M778.9,273.7a4.3,4.3,0,1,0-4.5-7.4,4.2,4.2,0,0,0-1.4,5.9A4.3,4.3,0,0,0,778.9,273.7Z" transform="translate(-91.6 -13.5)"/><path class="b" d="M905.3,388a4.3,4.3,0,0,0,1.5-5.9,4.3,4.3,0,1,0-7.4,4.5A4.2,4.2,0,0,0,905.3,388Z" transform="translate(-91.6 -13.5)"/><path class="b" d="M511.1,490.8a4.3,4.3,0,0,0,1.4-6,4.2,4.2,0,0,0-5.9-1.4,4.3,4.3,0,1,0,4.5,7.4Z" transform="translate(-91.6 -13.5)"/><path class="b" d="M597.2,576.1a4.3,4.3,0,1,0-4.5-7.4,4.3,4.3,0,0,0,4.5,7.4Z" transform="translate(-91.6 -13.5)"/><path class="b" d="M261.5,346.5a4.3,4.3,0,1,0-4.5-7.4,4.3,4.3,0,0,0,4.5,7.4Z" transform="translate(-91.6 -13.5)"/><path class="b" d="M291.4,492.5a4.4,4.4,0,0,0,1.5-6,4.5,4.5,0,0,0-6-1.4,4.4,4.4,0,0,0-1.4,6A4.2,4.2,0,0,0,291.4,492.5Z" transform="translate(-91.6 -13.5)"/><path class="b" d="M642.5,326.9a4.4,4.4,0,0,0,1.4-6,4.3,4.3,0,0,0-5.9-1.5,4.4,4.4,0,0,0,4.5,7.5Z" transform="translate(-91.6 -13.5)"/><path class="b" d="M250.4,219.1a4.3,4.3,0,0,0,1.4-6,4.4,4.4,0,0,0-6-1.4,4.4,4.4,0,1,0,4.6,7.4Z" transform="translate(-91.6 -13.5)"/><path class="b" d="M509.3,353.2a4.3,4.3,0,0,0,1.5-5.9,4.3,4.3,0,1,0-7.4,4.5A4.2,4.2,0,0,0,509.3,353.2Z" transform="translate(-91.6 -13.5)"/><path class="b" d="M402.7,571.2a4.4,4.4,0,0,0-4.6-7.4,4.4,4.4,0,0,0,4.6,7.4Z" transform="translate(-91.6 -13.5)"/><path class="b" d="M369.4,416.7a4.2,4.2,0,0,0,1.4-5.9,4.3,4.3,0,0,0-5.9-1.5,4.3,4.3,0,1,0,4.5,7.4Z" transform="translate(-91.6 -13.5)"/><path class="b" d="M383.8,308.9a4.2,4.2,0,0,0,1.4-5.9,4.4,4.4,0,0,0-6-1.5,4.5,4.5,0,0,0-1.4,6A4.3,4.3,0,0,0,383.8,308.9Z" transform="translate(-91.6 -13.5)"/><path class="b" d="M712.2,454.8a4.3,4.3,0,1,0-4.5-7.4,4.3,4.3,0,0,0,4.5,7.4Z" transform="translate(-91.6 -13.5)"/><path class="b" d="M796.8,209.9a4.3,4.3,0,0,0,1.5-5.9,4.4,4.4,0,1,0-1.5,5.9Z" transform="translate(-91.6 -13.5)"/><path class="b" d="M824.2,301.5a4.3,4.3,0,1,0-4.5-7.4,4.3,4.3,0,0,0,4.5,7.4Z" transform="translate(-91.6 -13.5)"/><path class="b" d="M539.2,300.7a4.4,4.4,0,0,0,1.4-6,4.3,4.3,0,0,0-7.4,4.5A4.4,4.4,0,0,0,539.2,300.7Z" transform="translate(-91.6 -13.5)"/><path class="b" d="M756.8,355.8a4.2,4.2,0,0,0,1.4-5.9,4.3,4.3,0,0,0-5.9-1.5,4.3,4.3,0,1,0,4.5,7.4Z" transform="translate(-91.6 -13.5)"/><path class="b" d="M354.4,184.3a4.4,4.4,0,0,0,1.4-6,4.2,4.2,0,0,0-5.9-1.4,4.4,4.4,0,0,0-1.5,6A4.5,4.5,0,0,0,354.4,184.3Z" transform="translate(-91.6 -13.5)"/><path class="b" d="M224.4,280.4a4.3,4.3,0,0,0-4.5-7.4,4.4,4.4,0,0,0-1.5,6A4.4,4.4,0,0,0,224.4,280.4Z" transform="translate(-91.6 -13.5)"/><path class="b" d="M312.4,349.2a4.3,4.3,0,1,0-6-1.4A4.5,4.5,0,0,0,312.4,349.2Z" transform="translate(-91.6 -13.5)"/><path class="b" d="M362.8,470.5a4.3,4.3,0,0,0,1.5-5.9,4.4,4.4,0,1,0-1.5,5.9Z" transform="translate(-91.6 -13.5)"/><path class="b" d="M245,416.8a4.3,4.3,0,1,0-4.5-7.4,4.3,4.3,0,0,0,4.5,7.4Z" transform="translate(-91.6 -13.5)"/><path class="b" d="M488.5,553.4A4.3,4.3,0,1,0,484,546a4.3,4.3,0,0,0,4.5,7.4Z" transform="translate(-91.6 -13.5)"/><path class="b" d="M380,637.4a4.4,4.4,0,0,0,1.4-6,4.3,4.3,0,0,0-5.9-1.5,4.4,4.4,0,0,0,4.5,7.5Z" transform="translate(-91.6 -13.5)"/><path class="b" d="M98.2,190a4.4,4.4,0,0,0,1.4-6,4.3,4.3,0,0,0-7.4,4.5A4.4,4.4,0,0,0,98.2,190Z" transform="translate(-91.6 -13.5)"/><path class="b" d="M438.3,353.3a4.3,4.3,0,0,0,1.5-5.9,4.3,4.3,0,1,0-7.4,4.5A4.2,4.2,0,0,0,438.3,353.3Z" transform="translate(-91.6 -13.5)"/><path class="b" d="M184.7,148.4a4.3,4.3,0,0,0,1.5-5.9,4.4,4.4,0,1,0-1.5,5.9Z" transform="translate(-91.6 -13.5)"/><path class="b" d="M620.7,489.2a4.3,4.3,0,0,0,1.4-6,4.3,4.3,0,0,0-5.9-1.4,4.3,4.3,0,1,0,4.5,7.4Z" transform="translate(-91.6 -13.5)"/><path class="b" d="M719.5,295.2a4.4,4.4,0,0,0,1.4-6,4.3,4.3,0,0,0-7.4,4.5A4.4,4.4,0,0,0,719.5,295.2Z" transform="translate(-91.6 -13.5)"/><path class="b" d="M858.3,415.3a4.3,4.3,0,0,0,1.5-5.9,4.4,4.4,0,1,0-1.5,5.9Z" transform="translate(-91.6 -13.5)"/><path class="b" d="M555.2,396.7a4.3,4.3,0,0,0,1.5-5.9,4.3,4.3,0,1,0-7.4,4.5A4.2,4.2,0,0,0,555.2,396.7Z" transform="translate(-91.6 -13.5)"/><path class="b" d="M110.5,21.5a4.3,4.3,0,0,0,1.5-5.9,4.3,4.3,0,1,0-7.4,4.5A4.2,4.2,0,0,0,110.5,21.5Z" transform="translate(-91.6 -13.5)"/></g><g class="c"><path class="b" d="M284.1,363.3H284L174.1,433.5l219.4-4L284.9,363.4l75.7-43.3L189,262.6Zm-93.4-99.6,168.8,56.5-75,42.9C284.3,362.8,191.9,265.1,190.7,263.7Zm93.8,99.9,107.3,65.5-216,3.9Z" transform="translate(-91.6 -13.5)"/><path class="b" d="M189.6,263l.4.3,53.8-81c.2,1,29.7,109.3,29.7,109.3l111.1-58.8-24.8,87.5,137.1,60.5L284.5,363.1v.5l213.8,17.7v-.4L360.3,320.1c.2-.4,25-88.2,25-88.2l-111.5,59c-.1-.6-29.8-109.7-29.8-109.7Z" transform="translate(-91.6 -13.5)"/><path class="b" d="M196.5,186.9v.5l47.3-5.4,141,50.6L498.2,381.4l184.9-10.7,101.6-34.2,80.9,69.2c0,.2,13.6,71.2,13.7,71.7L723.5,499.2v.4l156.3-21.8L866,405.4,784.8,336,683,370.2,498.5,380.9,385.1,232.2,243.9,181.5Z" transform="translate(-91.6 -13.5)"/><path class="b" d="M683.1,370.2h-.3v.2L555,418l.2.4L682.4,371,613,456.4l110.9,43.4a.5.5,0,0,0-.1-.3l142.6-94.1L683.5,370.3l.3-.4Zm-.1.7L723.2,499,613.8,456.2Zm.4-.1,181.7,34.9L723.7,499C723.5,498.4,683.7,371.5,683.4,370.8Z" transform="translate(-91.6 -13.5)"/><path class="b" d="M443.4,405.9h-.3v.2l-51,23.2L479,524.3,286,431l-56.8,47.7-54.1-45.6-.3.3,54.4,45.9,56.9-47.8,193.7,93.7v.2l133.6-68.9v-.2a.3.3,0,0,1,.1-.2L498.4,380.8Zm-.1.6c.2.5,35.6,115.6,36.2,117.6L393,429.4Zm.5,0,168.9,49.8L480.2,524.7C480,524.1,444.1,407.3,443.8,406.5Zm54.5-25.1,113.6,74.2L444.1,406.1Z" transform="translate(-91.6 -13.5)"/><polygon class="b" points="137.6 465.7 388.4 511.8 388.5 511.3 137.6 465.3 137.6 465.7"/><path class="b" d="M784.7,336v.5l204-1.2L865.3,405.6l111.8,63.2-97.5,8.6v.5l99.1-8.7L866.3,405.6l124.2-70.8Z" transform="translate(-91.6 -13.5)"/><path class="b" d="M944.3,450.8l40.4-56-44-32.5Zm-3.1-87.6L984,394.9c-.2.4-38.5,53.4-39.3,54.5C944.7,448.1,941.2,364.2,941.2,363.2Z" transform="translate(-91.6 -13.5)"/><path class="b" d="M181.2,357.2l52.3,39.2,7.1-80.2Zm58.9-40c-.1.9-6.9,77.5-7,78.3L182,357.3Z" transform="translate(-91.6 -13.5)"/><path class="b" d="M280.7,291.9a7.1,7.1,0,1,1-6.4-7.7A7.1,7.1,0,0,1,280.7,291.9Z" transform="translate(-91.6 -13.5)"/><path class="b" d="M367.1,320.8a7.1,7.1,0,0,1-14.1-1.2,7.2,7.2,0,0,1,7.7-6.5A7.1,7.1,0,0,1,367.1,320.8Z" transform="translate(-91.6 -13.5)"/><path class="b" d="M505.4,381.7a7.2,7.2,0,0,1-7.7,6.5,7.1,7.1,0,0,1-6.4-7.7,7.1,7.1,0,1,1,14.1,1.2Z" transform="translate(-91.6 -13.5)"/><path class="b" d="M562.1,418.8a6.9,6.9,0,0,1-7.6,6.4,7.1,7.1,0,0,1-6.5-7.6,7.2,7.2,0,0,1,7.7-6.5A7.1,7.1,0,0,1,562.1,418.8Z" transform="translate(-91.6 -13.5)"/><path class="b" d="M487.1,525.6a7.2,7.2,0,0,1-7.7,6.5,7.1,7.1,0,0,1-6.4-7.7,6.9,6.9,0,0,1,7.6-6.4A7.1,7.1,0,0,1,487.1,525.6Z" transform="translate(-91.6 -13.5)"/><path class="b" d="M293.1,431.9a7,7,0,0,1-7.6,6.4,7.2,7.2,0,0,1-6.5-7.7,7.1,7.1,0,1,1,14.1,1.3Z" transform="translate(-91.6 -13.5)"/><path class="b" d="M399.7,429.9a7.2,7.2,0,0,1-7.7,6.5,7.1,7.1,0,1,1,1.3-14.1A7,7,0,0,1,399.7,429.9Z" transform="translate(-91.6 -13.5)"/><path class="b" d="M450.5,406.8a7.1,7.1,0,0,1-14.1-1.3,7.1,7.1,0,1,1,14.1,1.3Z" transform="translate(-91.6 -13.5)"/><path class="b" d="M622.8,457.1a9.5,9.5,0,1,1-8.6-10.3A9.4,9.4,0,0,1,622.8,457.1Z" transform="translate(-91.6 -13.5)"/><path class="b" d="M390.2,232.8a5.2,5.2,0,0,1-5.7,4.8,5.3,5.3,0,0,1-4.8-5.7,5.3,5.3,0,0,1,5.7-4.8A5.3,5.3,0,0,1,390.2,232.8Z" transform="translate(-91.6 -13.5)"/><path class="b" d="M688.4,370.9a5.4,5.4,0,0,1-5.8,4.8,5.3,5.3,0,0,1-4.8-5.7,5.4,5.4,0,0,1,5.8-4.8A5.3,5.3,0,0,1,688.4,370.9Z" transform="translate(-91.6 -13.5)"/><path class="b" d="M234.4,479.4a5.2,5.2,0,0,1-5.7,4.8,5.3,5.3,0,0,1-4.8-5.7,5.3,5.3,0,0,1,5.7-4.8A5.3,5.3,0,0,1,234.4,479.4Z" transform="translate(-91.6 -13.5)"/><path class="b" d="M186.9,357.7a5.3,5.3,0,0,1-5.8,4.8,5.3,5.3,0,0,1,1-10.5A5.3,5.3,0,0,1,186.9,357.7Z" transform="translate(-91.6 -13.5)"/><path class="b" d="M245.6,317.1a5.2,5.2,0,0,1-5.7,4.8,5.3,5.3,0,0,1-4.8-5.7,5.3,5.3,0,0,1,5.7-4.8A5.3,5.3,0,0,1,245.6,317.1Z" transform="translate(-91.6 -13.5)"/><path class="b" d="M238.6,396.5a5.3,5.3,0,1,1-10.5-1,5.3,5.3,0,0,1,5.7-4.8A5.4,5.4,0,0,1,238.6,396.5Z" transform="translate(-91.6 -13.5)"/><path class="b" d="M289.7,363.8a5.2,5.2,0,0,1-5.7,4.8,5.3,5.3,0,0,1-4.8-5.7,5.3,5.3,0,0,1,5.7-4.8A5.3,5.3,0,0,1,289.7,363.8Z" transform="translate(-91.6 -13.5)"/><path class="b" d="M249.1,182.2a5.3,5.3,0,0,1-5.7,4.8,5.3,5.3,0,0,1-4.8-5.7,5.3,5.3,0,0,1,5.7-4.8A5.2,5.2,0,0,1,249.1,182.2Z" transform="translate(-91.6 -13.5)"/><path class="b" d="M195.1,263.6a5.3,5.3,0,0,1-5.7,4.8,5.2,5.2,0,0,1-4.8-5.7,5.3,5.3,0,0,1,5.7-4.8A5.3,5.3,0,0,1,195.1,263.6Z" transform="translate(-91.6 -13.5)"/><path class="b" d="M201.7,187.6a5.2,5.2,0,0,1-5.7,4.8,5.3,5.3,0,0,1-4.8-5.7,5.3,5.3,0,0,1,5.7-4.8A5.3,5.3,0,0,1,201.7,187.6Z" transform="translate(-91.6 -13.5)"/><path class="b" d="M949.8,450.6a5.4,5.4,0,0,1-5.8,4.8,5.2,5.2,0,0,1-4.7-5.8,5.1,5.1,0,0,1,5.7-4.7A5.3,5.3,0,0,1,949.8,450.6Z" transform="translate(-91.6 -13.5)"/><path class="b" d="M989.9,395.5a5.3,5.3,0,0,1-5.7,4.8,5.3,5.3,0,1,1,1-10.5A5.1,5.1,0,0,1,989.9,395.5Z" transform="translate(-91.6 -13.5)"/><path class="b" d="M180.2,433.7a5.2,5.2,0,0,1-5.7,4.8,5.3,5.3,0,1,1,5.7-4.8Z" transform="translate(-91.6 -13.5)"/><path class="b" d="M728.8,499.9a5.3,5.3,0,1,1-10.5-1,5.1,5.1,0,0,1,5.7-4.7A5.3,5.3,0,0,1,728.8,499.9Z" transform="translate(-91.6 -13.5)"/><path class="b" d="M871,406a5.2,5.2,0,0,1-5.7,4.8,5.3,5.3,0,0,1-4.8-5.7,5.3,5.3,0,0,1,5.7-4.8A5.3,5.3,0,0,1,871,406Z" transform="translate(-91.6 -13.5)"/><path class="b" d="M884.8,478.1a5.3,5.3,0,0,1-5.7,4.8,5.3,5.3,0,0,1-4.8-5.7,5.3,5.3,0,0,1,5.7-4.8A5.2,5.2,0,0,1,884.8,478.1Z" transform="translate(-91.6 -13.5)"/><path class="b" d="M790,336.7a5.4,5.4,0,0,1-5.8,4.8,5.1,5.1,0,0,1-4.7-5.7,5.2,5.2,0,0,1,5.7-4.8A5.3,5.3,0,0,1,790,336.7Z" transform="translate(-91.6 -13.5)"/><path class="b" d="M946.2,363.2a5.3,5.3,0,0,1-10.5-.9,5.2,5.2,0,0,1,5.7-4.8A5.3,5.3,0,0,1,946.2,363.2Z" transform="translate(-91.6 -13.5)"/><path class="b" d="M994.9,335.5a5.4,5.4,0,0,1-5.8,4.8,5.3,5.3,0,1,1,1-10.5A5.3,5.3,0,0,1,994.9,335.5Z" transform="translate(-91.6 -13.5)"/><path class="b" d="M983.1,469.4a5.2,5.2,0,0,1-5.7,4.8,5.3,5.3,0,0,1-4.8-5.7,5.3,5.3,0,0,1,5.7-4.8A5.3,5.3,0,0,1,983.1,469.4Z" transform="translate(-91.6 -13.5)"/><path class="b" d="M1054.2,451.3a5.3,5.3,0,1,1-10.5-1,5.3,5.3,0,0,1,10.5,1Z" transform="translate(-91.6 -13.5)"/></g></svg>